/* XPM */
static char *airplane[] = {
/* columns rows colors chars-per-pixel */
"48 33 224 2 ",
"   c #2A6BAB",
".  c #2A6CAB",
"X  c #2B6BAC",
"o  c #2C6BAD",
"O  c #2A6CAC",
"+  c #2B6CAC",
"@  c #2B6CAD",
"#  c #2C6CAC",
"$  c #2E6EAD",
"%  c #306FAD",
"&  c #306FAE",
"*  c #3070AE",
"=  c #3472AF",
"-  c #3573B1",
";  c #3674B0",
":  c #3774B1",
">  c #3875B1",
",  c #3875B2",
"<  c #3B77B2",
"1  c #3C78B3",
"2  c #3D79B3",
"3  c #407AB4",
"4  c #407AB5",
"5  c #447EB6",
"6  c #457EB6",
"7  c #477FB7",
"8  c #487FB7",
"9  c #4880B8",
"0  c #4B82B8",
"q  c #4F84BA",
"w  c #4F85BA",
"e  c #5388B9",
"r  c #5488B9",
"t  c #5488BA",
"y  c #578ABB",
"u  c #5388BC",
"i  c #5488BC",
"p  c #5B8EBF",
"a  c #5C8DBF",
"s  c #5C8EBF",
"d  c #10B4E4",
"f  c #11B4E4",
"g  c #10B5E4",
"h  c #10B4E5",
"j  c #10B5E5",
"k  c #11B5E5",
"l  c #12B4E4",
"z  c #19B6E4",
"x  c #1FB7E4",
"c  c #20B8E4",
"v  c #27BAE4",
"b  c #38BDE3",
"n  c #5F90C0",
"m  c #6393C1",
"M  c #6292C2",
"N  c #6393C2",
"B  c #6896C4",
"V  c #6996C4",
"C  c #6997C5",
"Z  c #6B98C5",
"A  c #6C99C5",
"S  c #6D99C5",
"D  c #6D9AC5",
"F  c #6D9AC6",
"G  c #6F9BC6",
"H  c #7DA6C7",
"J  c #77A0C9",
"K  c #77A0CA",
"L  c #7EA5CB",
"P  c #7FA6CD",
"I  c #41BFE4",
"U  c #3CC2E8",
"Y  c #45C1E4",
"T  c #53C4E3",
"R  c #51C4E4",
"E  c #52C4E4",
"W  c #53C4E4",
"Q  c #5AC6E4",
"!  c #6ACAE4",
"~  c #64CEED",
"^  c #76CDE4",
"/  c #7DCEE4",
"(  c #82A9C8",
")  c #86ABCF",
"_  c #88ACCA",
"`  c #91B3CC",
"'  c #91B3CD",
"]  c #92B3CD",
"[  c #92B4CD",
"{  c #96B6CF",
"}  c #8AAED0",
"|  c #8BAED2",
" . c #8FB1D2",
".. c #93B4D5",
"X. c #94B5D5",
"o. c #96B6D5",
"O. c #98B8D6",
"+. c #9AB9D7",
"@. c #9CBAD7",
"#. c #9EBBD8",
"$. c #A0BDD2",
"%. c #A1BDDA",
"&. c #A1BEDA",
"*. c #A3BFDA",
"=. c #A3BFDB",
"-. c #A5C0D6",
";. c #ABC5DD",
":. c #ADC6DE",
">. c #AEC7DF",
",. c #AFC7DF",
"<. c #B5CCD9",
"1. c #B1C9DC",
"2. c #B1C8DF",
"3. c #B7CDDE",
"4. c #BACFDA",
"5. c #BFD4DB",
"6. c #83D0E3",
"7. c #83D0E4",
"8. c #87D1E4",
"9. c #8BD2E3",
"0. c #8FD3E4",
"q. c #93D4E4",
"w. c #95D4E4",
"e. c #9AD6E4",
"r. c #9ED6E4",
"t. c #8DDBF0",
"y. c #B1C8E0",
"u. c #A5D8E3",
"i. c #A6D8E4",
"p. c #BCD1E4",
"a. c #BFD2E5",
"s. c #BFD3E5",
"d. c #B5DCE3",
"f. c #B1DBE4",
"g. c #BCDEE4",
"h. c #C0D4DB",
"j. c #C6D8DD",
"k. c #C1D4E6",
"l. c #C2D4E6",
"z. c #C3D4E7",
"x. c #C2D5E7",
"c. c #CADAE9",
"v. c #CEDDEB",
"b. c #D1DFEC",
"n. c #C4E0E3",
"m. c #C5E0E3",
"M. c #C6E0E3",
"N. c #C4E0E4",
"B. c #C8E1E3",
"V. c #C9E1E3",
"C. c #CAE1E3",
"Z. c #CCE2E3",
"A. c #CDE2E3",
"S. c #CEE2E3",
"D. c #D0E3E3",
"F. c #D1E3E3",
"G. c #D5E4E3",
"H. c #D7E5E3",
"J. c #D5E2E4",
"K. c #D4E4E4",
"L. c #D5E4E4",
"P. c #D7E6E5",
"I. c #D8E4E2",
"U. c #D8E5E2",
"Y. c #D9E5E2",
"T. c #D8E4E3",
"R. c #D8E5E3",
"E. c #D9E5E3",
"W. c #D8E5E4",
"Q. c #D9E5E4",
"!. c #DAE6E4",
"~. c #DCE7E5",
"^. c #DCE7E6",
"/. c #D2E0EC",
"(. c #D4E1EE",
"). c #DEE9E8",
"_. c #DFE9E8",
"`. c #DFEAE8",
"'. c #CCEEF8",
"]. c #DCE7F0",
"[. c #DDE7F1",
"{. c #E1EAE9",
"}. c #E1EBEA",
"|. c #E2ECEA",
" X c #E4EDEC",
".X c #E6EEEC",
"XX c #E7EFED",
"oX c #E8F0EE",
"OX c #E1EAF2",
"+X c #E6EEF1",
"@X c #E4ECF4",
"#X c #E5EDF4",
"$X c #EAF1F0",
"%X c #EBF2F1",
"&X c #EFF3F7",
"*X c #EFF4F4",
"=X c #EFF5F4",
"-X c #E7F7FB",
";X c #EEF4F8",
":X c #F2F6F5",
">X c #F2F7F6",
",X c #F3F7F6",
"<X c #F1F5F9",
"1X c #F4F7FA",
"2X c #F3F9FA",
"3X c #F5F8F8",
"4X c #F7FAFB",
"5X c #F8FAFB",
"6X c #FAFCFB",
"7X c #F8FAFC",
"8X c #F9FBFC",
"9X c #FAFBFC",
"0X c #FAFBFD",
"qX c #F8FCFC",
"wX c #FCFDFC",
"eX c #FCFDFD",
"rX c #FDFEFD",
"tX c #FEFEFD",
"yX c #FDFDFE",
"uX c #FEFEFE",
"iX c #FEFFFE",
"pX c #FFFFFE",
"aX c #FFFEFF",
"sX c #FFFFFF",
/* pixels */
"sXsXsXsXsXsXsXsXsXsXsXsXsXsXsXsXsXsXsXsXsXsXsXsXsXsXsXsXsXsXsXsXsXsXsXsXsXsXsXsXsXsXsXsXsXsXsXsX",
"sXsXsXsXsXsXsXsXsXsXsXsXsXsXsXsXsXsXsXsXsXsXsXsXsXsXsXsXsXsXsXsXsXsXsXsXsXsXsXsXsXsXsXsXsXsXsXsX",
"sXsXsXsXsXsXsXsXsXsXsXsXsXsXsXsXsXsXsXsXs.=.-.&.&.sXsXsXsXsXsXsXsXsXsXsXsXsXsXsXsXsXsXsXsXsXsXsX",
"sXsXsXsXsXsXsXsXsXsXsXsXsXsXsXsXsXsXsXsXF + + + # wXsXsXsXsXsXsXsXsXsXsXsXsXsXsXsXsXsXsXsXsXsXsX",
"sX>.9 9 6 9 v.sXsXsXsXsXsXsXsXsXsXsXsXsXZ . + + + 7 o.sXsXsXsXsXsXsXsXsXsXsXsXsXsXsXsXsXsXsXsXsX",
"sX&.+ + . + O.c.sXsXsXsXsXsXsXsXsXsXsXsXX.m + . + + V s.s.b.sXsXsXsXsXsXsXsXsXsXsXsXsXsXsXsXsXsX",
"sX&.+ + + + + w wXsXsXsXsXsXsXsXsXsXsXsXsX#X. + + + X + + V sXsXsXsXsXsXsXsXsXsXsXsXsXsXsXsXsXsX",
"sX@Xx.2 + . + = m x.sXsXsXsXsXsXsXsXsXsXsX4Xx.D + + + + + < m /.sXsXsXsXsXsXsXsXsXsXsXsXsXsXsXsX",
"sXsXsX6 . + # + + o.[.sXsXsXsXsXsXsXsXsXsXsXsXO.9 # . + + + # ;.[.sXsXsXsXsXsXsXsXsXsXsXsXsXsXsX",
"sXsXsX6 # + + + + # - sXsXsXsXsXsXsXsXsXsXsXsXsXsX# + # # # # # w sXsXsXsXsXsXsXsXsXsXsXsXsXsXsX",
"sXsXsX2.P . . . . . # L 1.XXXXXX.X.XoX.X.X.XoXXX.X[ ] ] ] ] ] ] -.XXXXXX X XoXwXsXsXsXsXsXsXsXsX",
"sXsXsXsXp.* * % % * % * ( U.U.U.E.E.E.E.E.E.U.U.E.E.E.E.E.E.E.E.U.E.E.Q.E.E.E.2XwXsXsXsXsXsXsXsX",
"sXsXsXsXsXsX|.E.E.H.H.E.E.E.U.U.E.Q.Q.E.U.U.U.!.U.U.U.U.E.E.E.E.!.P.Q.Q.Q.L.Q.x ~ sXsXsXsXsXsXsX",
"sXsXsXsXsXsX-._ ( 5.E.E.E.E.6.r.E.0.q.Q.e.8.U.i./ P.f./ Z.E.E.w./ / d.K./ / / z U t.-XsXsXsXsXsX",
"sXsXsXsXsXwXs # + { E.E.E.I.x Q E.b Y L.R v P.! g P.6.g g.E.E.Y j j 9.S.f f f f f f '.sXsXsXsXsX",
"sXsXsXsXl.2 * # + { E.E.H.E.c.B.E.B.B.E.Z.m.U.A.m.U.D.l.I.E.H.Y f f 9.S.f f f f E N.L.Q.~.:XsXsX",
"sXsXsXs.} + . ; D 3. X X).E.E.E.E.E.E.E.E.E.E.E.E.E.E.E.E.E.E.^ T T u.F.T T T R 6.E.E.E.E.oX:XsX",
"sXsXsX6 + + + w sXsXsXsX%XE.H.E.E.E.E.E.H.H.E.Q.Q.Q.E.H.E.E.E.E.E.E.E.E.E.E.E.E.E.E.E.E.E.E.~.sX",
"sXsXsX6 + + &./.sXsXsXsX6X3X4XoXE.E.E.E.H e e e e e e y j.E.E.E.E.E.E.E.E.E.E.E.E.E.E.E.E.E.Q.sX",
"sXsXsXV i i b.sXsXsXsXsXsXsXsX:X).).J.<.y . + + + + . + 5.E.E.E.E.E.E.E.E.E.E.E.E.E.E.E.).{.{.sX",
"sXsXsXsXsXsXsXsXsXsXsXsXsXsXsXsXsXsXc.X + X + . +     o 5.E.E.E.E.E.E.E.E.E.E.E.E.E.E.{.sXsXsXsX",
"sXsXsXsXsXsXsXsXsXsXsXsXsXsXsXsXsX .m       . .     m >.#X:X*X*X*X*X:X*X*X*X*X*X*X:X*X:XsXsXsXsX",
"sXsXsXsXsXsXsXsXsXsXsXsXsXsXsX9X&Xw + + + . + . + : } sXsXsXsXsXsXsXsXsXsXsXsXsXsXsXsXsXsXsXsXsX",
"sXsXsXsXsXsXsXsXsXsXsXsXsXsXsX>.X X + +     + X # 9XsXsXsXsXsXsXsXsXsXsXsXsXsXsXsXsXsXsXsXsXsXsX",
"sXsXsXsXsXsXsXsXsXsXsXsXsXsXo.Z +   + + . + . N o.wXsXsXsXsXsXsXsXsXsXsXsXsXsXsXsXsXsXsXsXsXsXsX",
"sXsXsXsXsXsXsXsXsXsXsXsXwXsX< . + + + + . . # @.sXsXsXsXsXsXsXsXsXsXsXsXsXsXsXsXsXsXsXsXsXsXsXsX",
"sXsXsXsXsXsXsXsXsXsXsXsXO.<   . + +   + + 4 &X4XsXsXsXsXsXsXsXsXsXsXsXsXsXsXsXsXsXsXsXsXsXsXsXsX",
"sXsXsXsXsXsXsXsXsXsX9X>.D #     +   2 K J ) sXsXsXsXsXsXsXsXsXsXsXsXsXsXsXsXsXsXsXsXsXsXsXsXsXsX",
"sXsXsXsXsXsXsXsXsXsX1XX + + . . + + s sXsXsXsXsXsXsXsXsXsXsXsXsXsXsXsXsXsXsXsXsXsXsXsXsXsXsXsXsX",
"sXsXsXsXsXsXsXsXsXsX;X+ # + + . + 2.[.sXsXsXsXsXsXsXsXsXsXsXsXsXsXsXsXsXsXsXsXsXsXsXsXsXsXsXsXsX",
"sXsXsXsXsXsXsXsXsXsX1Xa s s a a a [.sXsXsXsXsXsXsXsXsXsXsXsXsXsXsXsXsXsXsXsXsXsXsXsXsXsXsXsXsXsX",
"sXsXsXsXsXsXsXsXsXsXsXsXsXsXsXsXsXsXsXsXsXsXsXsXsXsXsXsXsXsXsXsXsXsXsXsXsXsXsXsXsXsXsXsXsXsXsXsX",
"sXsXsXsXsXsXsXsXsXsXsXsXsXsXsXsXsXsXsXsXsXsXsXsXsXsXsXsXsXsXsXsXsXsXsXsXsXsXsXsXsXsXsXsXsXsXsXsX"
};
