/* XPM */
static char *brazil[] = {
/* columns rows colors chars-per-pixel */
"48 26 111 2 ",
"   c #35C700",
".  c #36C700",
"X  c #36C701",
"o  c #37C701",
"O  c #38C701",
"+  c #35C800",
"@  c #38C801",
"#  c #4BCB07",
"$  c #56CD0A",
"%  c #57CD0B",
"&  c #5ACE0C",
"*  c #5CCE0C",
"=  c #5CCE0D",
"-  c #66D00F",
";  c #67D00F",
":  c #6AD110",
">  c #6BD110",
",  c #6DD111",
"<  c #74D213",
"1  c #78D315",
"2  c #79D315",
"3  c #4CAE51",
"4  c #4DAF52",
"5  c #4EAF52",
"6  c #4DB051",
"7  c #4EB051",
"8  c #4EB052",
"9  c #82D517",
"0  c #83D517",
"q  c #8AD61A",
"w  c #8BD61A",
"e  c #91D81C",
"r  c #92D81C",
"t  c #93D81C",
"y  c #9BD91F",
"u  c #FAEA3A",
"i  c #FBEA3A",
"p  c #FAEB3A",
"a  c #FBEB3A",
"s  c #FCEA3A",
"d  c #FCEB3A",
"f  c #FDEB3A",
"g  c #FDEA3B",
"h  c #FCEB3B",
"j  c #FDEB3B",
"k  c #FEEA3B",
"l  c #FEEB3B",
"z  c #FFEB3B",
"x  c #FAE83C",
"c  c #FCEA3C",
"v  c #FDEA3C",
"b  c #999B6F",
"n  c #9A9C6F",
"m  c #9C9E6D",
"M  c #9D9F6D",
"N  c #888E78",
"B  c #8A9176",
"V  c #8C9277",
"C  c #929771",
"Z  c #909573",
"A  c #919672",
"S  c #979A70",
"D  c #989B70",
"F  c #9A9C70",
"G  c #A1A26B",
"H  c #A1A26C",
"J  c #B7D344",
"K  c #BCD543",
"L  c #0127BC",
"P  c #0026BD",
"I  c #0126BD",
"U  c #0127BD",
"Y  c #0227BC",
"T  c #0327BC",
"R  c #0226BD",
"E  c #0227BD",
"W  c #0327BD",
"Q  c #0628BB",
"!  c #0328BC",
"~  c #0328BD",
"^  c #0328BE",
"/  c #0528BC",
"(  c #0428BD",
")  c #0528BD",
"_  c #0428BE",
"`  c #092ABC",
"'  c #6C80D8",
"]  c #6E82D8",
"[  c #7387D9",
"{  c #7287DA",
"}  c #798CDB",
"|  c #7A8DDB",
" . c #798BDC",
".. c #97D099",
"X. c #9AD19E",
"o. c #A0D4A3",
"O. c #A5D6A8",
"+. c #A9D8AE",
"@. c #AFDBB2",
"#. c #FDF283",
"$. c #FCF288",
"%. c #8091DD",
"&. c #8596DF",
"*. c #899BDF",
"=. c #8899E0",
"-. c #889AE0",
";. c #F7FAFB",
":. c #F9FBFC",
">. c #F9FCFC",
",. c #FAFCFE",
"<. c #FBFCFE",
/* pixels */
"                                                                                                ",
"                                                                                                ",
"                                                                                                ",
"                                              O y t O                                           ",
"                                          @ t h z z h w O                                       ",
"                                        w h h z z z z h z 9 O                                   ",
"                                    0 x h z z x x x x z h h x 2                                 ",
"                              O 2 h z z h z N ( ( ( ( Z z h h h h < O O                         ",
"                            < h h h h h h B P P P P P T b h h h z h h ,                         ",
"                          , h z h h h h A Q P P P P P P T M h h z z h h ;                       ",
"                      : h h z z z z h J 5 X.;.;.} ( ( P P ( H h z z z z h h = O                 ",
"                  = h h z z z z z z h $.<.+.5 5 O.:.:.] ( ( H h z z z z h h h h % +             ",
"              $ h h z z z z z z z z z F _ _ ! | o.7 5 @.<.<.#.h z z z z z z z h h h #           ",
"                O = z h z z z z z z z F ] =.P P ( P =...5 5 K h z z z z z z z h % O             ",
"                      ; h z z z z z z n P P P  .} P P ( P P H h z z h h h h &                   ",
"                          , h z z z z z A [ =.P _ P =.' ( M z h z z z h :                       ",
"                          O < h h z z z z V ( P %.{ _ Q b z z z z z h ,                         ",
"                              O 2 x z z h z N ( ` ` Q V h h h h x < + +                         ",
"                                + + 9 x h h z z z x z x h h h 2                                 ",
"                                  + + + w x z h z z z z h 0 O                                   ",
"                                        O @ t h h h h w O O                                     ",
"                                              O y t O                                           ",
"                                                O                                               ",
"                                                                                                ",
"                                                                                                ",
"+   + + + + + + + + + + + + + + + + + + + + + +         + + + + + + + + + + + + + + + + + + + + "
};
