/* XPM */
static char *cloud2[] = {
/* columns rows colors chars-per-pixel */
"48 23 51 1 ",
"  c #0E87FB",
". c #0D89FD",
"X c #1087FC",
"o c #128AFB",
"O c #1D90FC",
"+ c #2B95F9",
"@ c #369BFB",
"# c #3B9DFA",
"$ c #45A1F7",
"% c #45A2F9",
"& c #4DA6FB",
"* c #50A7FB",
"= c #55AAFA",
"- c #5EAFFB",
"; c #5EB0FB",
": c #62B1FA",
"> c #6AB5FB",
", c #76BAFA",
"< c #7EBEF9",
"1 c #84BFF9",
"2 c #85C1F6",
"3 c #89C3F7",
"4 c #85C2FC",
"5 c #8BC5FA",
"6 c #98CDF6",
"7 c #99CCF9",
"8 c #A0CFF7",
"9 c #A5D1FB",
"0 c #AED6FB",
"q c #B7DCF7",
"w c #B0D7FA",
"e c #B4DAFA",
"r c #B9DDFB",
"t c #BFE1F9",
"y c #C7E2F7",
"u c #C6E3FA",
"i c #C9E5FA",
"p c #CFE8F9",
"a c #D7EBF7",
"s c #D0E7FA",
"d c #D4EAFA",
"f c #DBEEF9",
"g c #DFF2FC",
"h c #EDF8F7",
"j c #E3F2FC",
"k c #EBF6FB",
"l c #EFF8FC",
"z c #F9FCF6",
"x c #F0F7F9",
"c c #F4FAFB",
"v c #FAFDFB",
/* pixels */
"................................................",
"................................................",
".............    o..........  ..    ............",
"............ %&&&&&+...... %*****&*%............",
"........  ooodvvvvv<oo  X Ohvvvvvvvfoooo.oo  ...",
"........  >zvvljjvvzzho  %czvljjjcvvvvvvvc#  ...",
".... ... 2azvkkjjkkjhzyuypvccjjjgjkkvvvckzi:....",
".... %553szvcjjjjjjgkvkkkcvcjjjjjjjjcvvcglh,....",
"....#6vcccccjjjjkjjjjcjgjkvjjjjjkjkkkvvljjj3+ ..",
".. .qzcjjjjjjjjjjjjjjjjjgkvjjjjjvvvvvvkjjjgy<...",
"..olvcjjjjjgjjjkjjcvvvvkjjjjjkvvvljjvjjjjjju<...",
"..ocljgjccvcvjjjjcvccvvvkjjjcvvjkjjjkjjjjjte4 ..",
"..opggjcvcllvjjjjvckjllvxjjjllkjjjjjgjdyuie4%...",
"..o9yfjcckjjvjjjjvjjjjjxljjjjjjjjjjjjdt0005%....",
"...90ugggjjjjjjjjvkjjjjjjjjjjjfgjgjjgq0090+.....",
"....20000pjjjjjjjjjjjjjjjjjjjiw0000000&ooo......",
"....+@@@9erujjjjjjjiqrrrrrrrre000008@@O.........",
".... ...=-<wuuiuiuir7---;-;;--;;;;-*............",
"........X.#344444444:o. .X.XX.. ................",
"........XX .XX..XXXX  ...XX.XX.X................",
".................. .............................",
"................................................",
"................................................"
};
