/* XPM */
static char *cloud1[] = {
/* columns rows colors chars-per-pixel */
"48 28 49 1 ",
"  c #0D86F6",
". c #0C88F7",
"X c #0E87FC",
"o c #0D89FD",
"O c #168AF7",
"+ c #1187FB",
"@ c #1288FB",
"# c #1B8DF8",
"$ c #1F92F8",
"% c #2C96F9",
"& c #349AF7",
"* c #359BFB",
"= c #389AF8",
"- c #3FA1F7",
"; c #46A3FB",
": c #4FA7F8",
"> c #55ACF6",
", c #55AAFB",
"< c #6EB5F8",
"1 c #6EB9FD",
"2 c #76BAF7",
"3 c #70B6FA",
"4 c #71B9F8",
"5 c #7CBDFA",
"6 c #8EC4FB",
"7 c #91C6F9",
"8 c #97CCFB",
"9 c #98CBFC",
"0 c #9FD1F9",
"q c #A1D1F7",
"w c #AAD5F7",
"e c #ADD6FA",
"r c #ADD8FC",
"t c #B9DBF7",
"y c #B0D6FA",
"u c #B6DBFB",
"i c #B9DCFB",
"p c #C6E2F8",
"a c #CCE6FA",
"s c #D0E6FC",
"d c #DDEFFB",
"f c #DFF1FC",
"g c #E4F1F7",
"h c #E9F4F6",
"j c #E3F2FC",
"k c #EBF6FC",
"l c #F9FBF6",
"z c #F4FAFC",
"x c #FAFDFB",
/* pixels */
"oooooooooooooooooooooooooooooooooooooooooooooooo",
"oooooooooooooooooooooooooooooooooooooooooooooooo",
"oooooooooooooooooooooooooooooooooooooooooooooooo",
"oooooooooooooooooooooooooooooooooooooooooooooooo",
"oooooooooooooooooooooooooooooooooooooooooooooooo",
"oooooooooooooooooooooooooooooooooooooooooooooooo",
"oooooooooooooooooooooooooooooooooooooooooooooooo",
"oooooooooooooooooooooooooooooooooooooooooooooooo",
"oooooooooooooXX.oo@@XooooooXXXXX.X.ooooooooooooo",
"oooooooooooooXXO+@+@+++@@o@@@@@+OOoo+ooooooooooo",
"ooooooooXXoo+o+agjjjjgjjjjjkjkgjj=XXoooooooooooo",
"ooooooooooo#,,,gxzzzzzzzzxxxxxxxz5,,,,,;X.oooooo",
"ooooooooXXo*lxxlzjjjjjjjkxxxxxxxxllxxxxpX oooooo",
"ooooooo.,wwtlzkkkjjgjjjjjxxxzkkkkkkkkkxhw:Xooooo",
"oooooo.O5llxxkjjjjjjjjfkjxxxkjkjjjjfjfzxl4Xooooo",
"oooooo$weyeugfjjjjjjjjjzxxzjjjjfjjfgaeyee,oooooo",
"oooooXO<13quaaadjjjjjjjkzzkjjfaaaaaapee93=XXoooo",
"oooooXo+o 6yeeefjjjjjjjjjfjjjfyrrrryree6+XXXoooo",
"ooooooooXX%**2wiiuiiuuiiuiiuiuerw:&&***%.XoXoooo",
"ooooooooooXXX,8889998998888998898%Xooooooo.ooooo",
"ooooooooo+oooXX@oo@o++o+o@@oo@@oXXXXoooooooooooo",
"oooooooooooooo@oooooooooooooooooooXXoooooooooooo",
"ooooooooooooo@oooooooooooooooooooooooooooooooooo",
"oooooooooooooooooooooooooooooooooooooooooooooooo",
"oooooooooooooooooooooooooooooooooooooooooooooooo",
"oooooooooooooooooooooooooooooooooooooooooooooooo",
"oooooooooooooooooooooooooooooooooooooooooooooooo",
"oooooooooooooooooooooooooooooooooooooooooooooooo"
};
