/* XPM */
static char *cup[] = {
/* columns rows colors chars-per-pixel */
"45 48 203 2 ",
"   c #030304",
".  c #0C0905",
"X  c #04040A",
"o  c #0D0D0D",
"O  c #060C07",
"+  c #120D0A",
"@  c #110D06",
"#  c #071209",
"$  c #081609",
"%  c #13120C",
"&  c #1B150B",
"*  c #1B1405",
"=  c #0D0D11",
"-  c #131413",
";  c #1C1A12",
":  c #1E1E1E",
">  c #151A18",
",  c #281E0D",
"<  c #271D0D",
"1  c #201F1F",
"2  c #0C310F",
"3  c #16330F",
"4  c #0D3915",
"5  c #0E3716",
"6  c #123415",
"7  c #103916",
"8  c #113618",
"9  c #183B1D",
"0  c #2A2416",
"q  c #332C1D",
"w  c #302612",
"e  c #1F1E20",
"r  c #201F20",
"t  c #212121",
"y  c #292929",
"u  c #353535",
"i  c #39393A",
"p  c #383739",
"a  c #4B3A1E",
"s  c #184E16",
"d  c #144F1D",
"f  c #184C1C",
"g  c #16451D",
"h  c #15511D",
"j  c #19531C",
"k  c #185313",
"l  c #23411F",
"z  c #144F20",
"x  c #544A30",
"c  c #5E533D",
"v  c #4A4531",
"b  c #614B27",
"n  c #785D26",
"m  c #605132",
"M  c #576423",
"N  c #636A28",
"B  c #686E29",
"V  c #73792E",
"C  c #71732C",
"Z  c #796338",
"A  c #757A32",
"S  c #787C36",
"D  c #6D722A",
"F  c #4E4F4E",
"G  c #555657",
"H  c #55524B",
"J  c #615E59",
"K  c #5C655D",
"L  c #7B684A",
"P  c #676155",
"I  c #5F5F61",
"U  c #605F60",
"Y  c #656565",
"T  c #7A7B79",
"R  c #6C746D",
"E  c #816023",
"W  c #87672A",
"Q  c #97752E",
"!  c #99762A",
"~  c #997737",
"^  c #A37C2E",
"/  c #A57D36",
"(  c #9A7A40",
")  c #897C5C",
"_  c #7C8546",
"`  c #788452",
"'  c #AC812E",
"]  c #B6862E",
"[  c #B9872E",
"{  c #B9892C",
"}  c #A88233",
"|  c #B68732",
" . c #BA8631",
".. c #B68932",
"X. c #BB8A33",
"o. c #BB8E3D",
"O. c #B3893B",
"+. c #BD933A",
"@. c #C08E39",
"#. c #C08B34",
"$. c #C49136",
"%. c #C3933B",
"&. c #CA9639",
"*. c #CD9A3B",
"=. c #D29E3D",
"-. c #CBA03F",
";. c #D3A03E",
":. c #DBA43E",
">. c #DDA83E",
",. c #E1A73E",
"<. c #99855A",
"1. c #BB9141",
"2. c #A18651",
"3. c #A38A58",
"4. c #B79B5F",
"5. c #AF9665",
"6. c #C39444",
"7. c #C59845",
"8. c #CB9D4B",
"9. c #C49A49",
"0. c #D29E40",
"q. c #C49F53",
"w. c #CBA143",
"e. c #CCA04F",
"r. c #D3A242",
"t. c #DDA642",
"y. c #DEA944",
"u. c #DBA64A",
"i. c #DDAB4B",
"p. c #D0A04F",
"a. c #DFB04D",
"s. c #CDA553",
"d. c #C7A659",
"f. c #DEAE51",
"g. c #D6AC5B",
"h. c #DBAF59",
"j. c #D3A654",
"k. c #DEB25C",
"l. c #DEB156",
"z. c #E0A746",
"x. c #E0A944",
"c. c #E1AA49",
"v. c #E3AE53",
"b. c #E2B255",
"n. c #E4B55C",
"m. c #DBAE63",
"M. c #D4AC60",
"N. c #DBB264",
"B. c #D8B66B",
"V. c #DCBA73",
"C. c #D3BA74",
"Z. c #CAAB6C",
"A. c #E4B561",
"S. c #E5B964",
"D. c #E4B96B",
"F. c #ECBE6D",
"G. c #E0B568",
"H. c #E1BC71",
"J. c #ECC374",
"K. c #ECC57C",
"L. c #EEC97E",
"P. c #E3C07B",
"I. c #F0C679",
"U. c #E9C167",
"Y. c #888985",
"T. c #91918E",
"R. c #969696",
"E. c #9B9C98",
"W. c #A9AA9E",
"Q. c #AAAAA9",
"!. c #A7A3A2",
"~. c #B3B3B3",
"^. c #BBBBBA",
"/. c #B4B4AD",
"(. c #E3BF80",
"). c #EEC781",
"_. c #EBC982",
"`. c #ECCD8D",
"'. c #F0C782",
"]. c #F0CA83",
"[. c #F0CD8B",
"{. c #EED39D",
"}. c #EED4A1",
"|. c #F1DCB5",
" X c #F1DCBC",
".X c #EFE1BE",
"XX c #F0E0BE",
"oX c #C6C7C6",
"OX c #C7C8C7",
"+X c #CACACB",
"@X c #D4D5D4",
"#X c #DEDFDE",
"$X c #DFE0DF",
"%X c #F0E2C2",
"&X c #F2E4C9",
"*X c #E4E5E4",
"=X c #ECEDEC",
"-X c #E7EAE7",
";X c #EFF0EF",
":X c #EFF0F0",
">X c #F5F6F5",
",X c #FFFFFF",
"<X c #F8F9F7",
/* pixels */
",X,X,X,X,X,X,X,X,X,X,X,X,X,X,X,X,X,X,X,X,X,X,X,X,X,X,X,X<X,X,X,X,X,X,X,X,X,X,X,X,X,X,X,X,X",
",X,X,X,X,X,X,X,X,X,X,X,X,X,X,X,X,X,X>X>X<X<X<X,X<X<X<X,X,X,X,X,X,X,X,X,X,X,X,X,X,X,X,X,X,X",
",X,X,X,X,X,X,X,X,X,X,X,X,X,X,X,X,X>XG u u u u u u u R <X<X,X,X,X,X,X,X,X,X,X,X,X,X,X,X,X,X",
",X,X,X,X,X,X,X,X,X,X,X,X,X,X,X,X,X>Xu               G <X<X,X,X,X,X,X,X,X,X,X,X,X,X,X,X,X,X",
",X,X,X,X,X,X,X,X,X,X,X,X,X,X,X;XY G <.2.2.2.~ ~ ( 2.) I T <X,X,X,X,X,X,X,X,X,X,X,X,X,X,X,X",
",X,X,X,X,X,X,X,X,X,X,X,X,X,X<X-X- + C._.K.).n.t.A.).3.X i ,X<X,X,X,X,X,X,X,X,X,X,X,X,X,X,X",
",X,X,X,X,X,X,X,X,X,X,X,X,X*XT.Y.L L N.n.`.{.H.n.A.S.q.n Z T.E.>X<X,X,X,X,X,X,X,X,X,X,X,X,X",
",X,X,X,X,X,X,X,X,X,X,X,X<X@X  ; P.].y.t.{.&X}.).A.y.x.:.1.  r =X,X,X,X,X,X,X,X,X,X,X,X,X,X",
",X,X,X,X,X,X,X,X,X,X,X=X^.W.v c V.J.D.A.{.|.`.F.n.y.u.r.@.a x /.^.>X,X,X,X,X,X,X,X,X,X,X,X",
",X,X,X,X,X,X,X,X,X,X,X~.  q _.J.y.>.|.&X`.K.n.x.x.x.0. .@.x.=.+ o #X,X,X,X,X,X,X,X,X,X,X,X",
",X,X,X,X,X,X,X,X,X,X,X~.  0 K.J.k.l.}.XX].J.b.x.x.x.r...X.y.=.+ o #X,X,X,X,X,X,X,X,X,X,X,X",
",X,X,X,X,X,X,X,X,X,X,X~.  q K._.|..X[.].a.x.t.x.x.y.=.| $.y.;.+ o $X,X,X,X,X,X,X,X,X,X,X,X",
",X,X,X,X,X,X,X,X,X,X,X~.  q K.K..X.X_.I.b.x.x.x.>.y.;.X.X.y.-.% o $X,X,X,X,X,X,X,X,X,X,X,X",
",X,X,X,X,X,X,X,X,X,X,X~.  0 i.k.|..Xn.a.y.x.x.x.*.#.$.r.i.J.B.% o #X,X,X,X,X,X,X,X,X,X,X,X",
",X,X,X,X,X,X,X,X,X,X,X~.  w t.v. X%Xb.y.y.z.y.i.*.] %.,.f.K.H.% o $X,X,X,X,X,X,X,X,X,X,X,X",
",X,X,X,X,X,X,X,X,X,X,X~.  , %.%._.`.f.y.x.t.*.$.&.r.r.x.t.7.1.+ o $X,X,X,X,X,X,X,X,X,X,X,X",
",X,X,X,X,X,X,X,X,X,X,X~.  < X.X.P.'.c.c.y.c.&.| &.x.z.x.t. .^ + o #X,X,X,X,X,X,X,X,X,X,X,X",
",X,X,X,X,X,X,X,X,X,X,X~.  0 X...A.A.c.t.x.y.r.*.u.S.S.n.h.] ' + o #X,X,X,X,X,X,X,X,X,X,X,X",
",X,X,X,X,X,X,X,X,X,X,X~.  < |  .:.y.t.y.y.x.x.x.n.'.L.'.F. ./ @ o #X,X,X,X,X,X,X,X,X,X,X,X",
",X,X,X,X,X,X,X,X,X,X,X+XI P n W *.0.*.*.c.b.b.b.k.m.m.m.q.n E J Y *X,X,X,X,X,X,X,X,X,X,X,X",
",X,X,X,X,X,X,X,X,X,X,X,X<X@X  & } .. .| G.'.].K.j.] { ..Q X r =X,X,X<X,X,X,X,X,X,X,X,X,X,X",
",X,X,X,X,X,X,X,X,X,X,X,X,X@X  & o.6.| [ g.D.D.D.j.[ X.X.^   r ;X,X,X,X,X,X,X,X,X,X,X,X,X,X",
",X,X,X,X,X,X,X,X,X,X,X,X,X@X  ; H.K.o.[ ..| | ..X.X.$.y.1.  : ;X,X,X,X,X,X,X,X,X,X,X,X,X,X",
",X,X,X,X,X,X,X,X,X,X,X,X,X@X  ; H.K.o.[ X. .X. .] ..@.t.1.  1 ;X,X,X,X,X,X,X,X,X,X,X,X,X,X",
",X,X,X,X,X,X,X,X,X,X,X,X,X@X  & p.u.F.L.7.X. .| %.x.b.L.Z.  : ;X,X,X,X,X,X,X,X,X,X,X,X,X,X",
",X,X,X,X,X,X,X,X,X,X,X,X,X@X  & r.i.J.K.9...X.[ &.y.b.L.Z.  0 =X,X,X,X,X,X,X,X,X,X,X,X,X,X",
",X,X,X,X,X,X,X,X,X,X,X,X,X@X  < 0.y.6.6.m.H.f.;.b.J.k.6./   e :X,X,X,X,X,X,X,X,X,X,X,X,X,X",
",X,X,X,X,X,X,X,X,X,X,X,X,X+X  * r.y.#.X.H.'.n.:.A.].N.{ ! X t =X,X,X,X,X,X,X,X,X,X,X,X,X,X",
",X,X,X,X,X,X,X,X,X,X,X,X,X=XQ.E.m b ^ [ 7.8.k.U.k.e./ a c !.Q.<X,X,X,X,X,X,X,X,X,X,X,X,X,X",
",X,X,X,X,X,X,X,X,X,X,X,X,X,X,X-X> . !  .[ ..m.).g.[ n X p <X,X,X,X,X,X,X,X,X,X,X,X,X,X,X,X",
",X,X,X,X,X,X,X,X,X,X,X,X,X,X,X-X- . ..*.p.s.j.g.9.] E   p ,X,X,X,X,X,X,X,X,X,X,X,X,X,X,X,X",
",X,X,X,X,X,X,X,X,X,X,X,X,X,X,X=X> . %.y.J.].p...] ..n   i <X,X,X,X,X,X,X,X,X,X,X,X,X,X,X,X",
",X,X,X,X,X,X,X,X,X,X,X,X,X,X,X*X- . %.c.k.S.s.7.@. .E X p <X,X,X,X,X,X,X,X,X,X,X,X,X,X,X,X",
",X,X,X,X,X,X,X,X,X,X,X,X,X,X<X-X> . %.x.@...g.K.M. .E X p ,X,X,X,X,X,X,X,X,X,X,X,X,X,X,X,X",
",X,X,X,X,X,X,X,X,X,X,X,X,X<X$X@X> $ o.p.O.} d.V.d.' n # i $X*X<X,X,X,X,X,X,X,X,X,X,X,X,X,X",
",X,X,X,X,X,X,X,X,X,X,X,X<X@X- = g d k j d k j j k h h z 9 = y =X,X,X,X,X,X,X,X,X,X,X,X,X,X",
",X,X,X,X,X,X,X,X,X,X,X,X,X@X  O g z z h j j j j j j j k f   e :X,X,X,X,X,X,X,X,X,X,X,X,X,X",
",X,X,X,X,X,X,X,X,X,X,X,X,X@X  ; C.V.s.w.B.C.d.-.w.w.+.} W   e :X,X,X,X,X,X,X,X,X,X,X,X,X,X",
",X,X,X,X,X,X,X,X,X,X,X,X<X@XX ; H.).v.c.U.].n.x.x.y.=.| ! . t :X,X,X,X,X,X,X,X,X,X,X,X,X,X",
",X,X,X,X,X,X,X,X,X,X,XOXF P 5.4.v.b.S.U.S.b.c.x.=.$.$.=.&.W W H G *X>X,X,X,X,X,X,X,X,X,X,X",
",X,X,X,X,X,X,X,X,X,X,X~.  q I.I.x.i.J._.v.,.>.,.*.[ $.>.:.[ } o o #X,X,X,X,X,X,X,X,X,X,X,X",
",X,X,X,X,X,X,X,X,XoXY.K 2 9 ` _ A A _ _ S A V V D N B V C N M 3 5 R T *X,X,X,X,X,X,X,X,X,X",
",X,X,X,X,X,X,X,X,XR.  $ f f j h z z d d h d d d d h d h h d h d d O   OX,X,X,X,X,X,X,X,X,X",
",X,X,X,X,X,X,X,X,XR.  # 8 7 7 4 4 5 5 4 4 4 4 4 7 7 7 4 4 7 6 2 6 O   oX,X,X,X,X,X,X,X,X,X",
",X,X,X,X,X,X,X,X,XR.                                                  oX,X,X,X,X,X,X,X,X,X",
",X,X,X,X,X,X,X,X,X!.u u u u u u u u u u u u u u u u u u u u u u u u u @X,X,X,X<X,X,X,X,X,X",
",X,X,X,X,X,X,X,X,X<X>X,X>X,X,X>X,X>X>X>X>X,X>X,X,X<X,X>X,X>X>X,X>X>X>X,X,X,X,X,X,X,X,X,X,X",
",X,X,X,X,X,X,X,X,X,X,X,X,X,X,X,X,X,X,X,X,X,X,X,X,X,X,X,X,X,X,X,X,X,X,X,X,X,X,X,X,X,X,X,X,X"
};
