/* XPM */
static char *floor[] = {
/* columns rows colors chars-per-pixel */
"48 48 59 1 ",
"  c #326F27",
". c #356F29",
"X c #347126",
"o c #377E25",
"O c #347129",
"+ c #3B7D2D",
"@ c #3E7535",
"# c #3E7E31",
"$ c #417E34",
"% c #447F39",
"& c #3A8B27",
"* c #3D842D",
"= c #3D8B2C",
"- c #3F912D",
"; c #3E8332",
": c #3F8B32",
"> c #40842E",
", c #418B2E",
"< c #42922E",
"1 c #449A2E",
"2 c #428434",
"3 c #438B34",
"4 c #498D37",
"5 c #458539",
"6 c #49863C",
"7 c #468C39",
"8 c #4A8C3C",
"9 c #459334",
"0 c #499436",
"q c #469A34",
"w c #499B36",
"e c #479339",
"r c #4A933B",
"t c #469938",
"y c #4C9B3B",
"u c #509E36",
"i c #519C3E",
"p c #46A12D",
"a c #46A033",
"s c #4AA135",
"d c #4DA23B",
"f c #4EAA39",
"g c #50A33D",
"h c #51AD3C",
"j c #4AB034",
"k c #4EB138",
"l c #4A8041",
"z c #4C8B41",
"x c #508A44",
"c c #568D4B",
"v c #4D9340",
"b c #4F9D40",
"n c #519542",
"m c #519B41",
"M c #56924B",
"N c #559B48",
"B c #4EA040",
"V c #52A241",
"C c #52AC40",
/* pixels */
"jr4<r8*8758shy3er8;e85eyfr79y7*885zwhq33e7#785ey",
"9g2+27$2ry329d2+562*wy,*9f2+;85;yw=2:f:*2e52ww3*",
"7e:r,r22i*477e=83y5+y=78793e7r2#n=7zee:03y;#y=86",
"rr27>0322227rz37*935;:*7er58*e92;227rz;8*t75;;=4",
"r9i24$4$270y0ew33+8$26rye0w34+7228ryrqw72o722zew",
"0<ywi>2+2r7;7twrm25*2r8*09wem*5+;e7;r9yrV;2+;87*",
"8,32i00iwg32e&3;dr7ywse3r223yqryad33r:3;yrryag95",
"242reg&9q1<22428eg&w1q92242zty,qq1922528rB=qq1e2",
"r32;23e*35*7r72;5:7*25+5r722;39*35+5r73#2,3;25+7",
"d03r83s36 29yy3r8<s35.$0sw,rr3w3l.#egw3r89w35.#e",
"3-y33737$249e3w37333>>707-y387:3#;9e3-y*73,32*7e",
":z;ermee55+226,40ire52*:;8>7rmre52;227=eeirr52*3",
"h03e04*7638dh07407*8827mhq=7r7*rz37dhe7307;e854i",
"9d:+5722vw3*<g2+2722ri3*9d3$2822nd5*<V2*38$2ry,*",
"7e*e7e5;b&768r2r3w52w&06793r3r;;r&76402r3r2;y&e6",
"rr27*03225;err33+03$52288e53=e7$23;er0=8>q3222;r",
"r9i56o4$$8rw0ry25+8;26ewyrb75+8;;8eweri45+4*56ew",
"09yrm>6$2r3*89w0g>2#278;e9ieb*5+*87281wrg*5$;77;",
"r332me9wsg33r,32mr7wqf92r332V90ypd920,52i04yaf35",
"2628ed&qq90223280d:q190525;8ei,q10e223$4ed,qw905",
"r532*e3>25$3e752=9e*27+50352293&55*7877*=93*27#6",
"d03re<w45O$edy3z83y,5O*0g03re-w26O#9dy:88:s35 ;e",
"3,y287>32+4w9=w377:3$57033u564,32$4ee=d37325%%6t",
"54*eeyer22+336>88m0r52$254*0ri0r55+338*0eiwr52;;",
"kr79ee*8858dhr39e7,865eyh07<re*7878dfy33ee;7837m",
"3h:+;82;rw:29d2+362*ww:;,f;#2822rw,$:d=#5z;;0w3>",
"70*v,r22i>4679:r7052y=78703r3r;5m&887e:r3e:5m=77",
"rr262072*327ve27;q72;328er57>0:22;2evr28:e7;;228",
"rwy33+8#280y0wy25o82$4ryr0y33+72$8ewqww32oz#27ri",
"89r0m25+;r7;79qri52#287;e9w0m;2#*e7$8eweV5;#2r7+",
"v335me3dwd9*r,32se7ywg450,32dqeywf-3r=5;deeywV35",
"25#neg&011<2$72rrd=q11<52528eg=e1q92;62red=qq172",
"r55;2<9*>5+3v35;293*>3+5r352239*>7+4r352539*>3$6",
"dt:r83d35X#9Ve3r0,s35.$edw3r83s35X#9dw=r4<w75X$r",
"7=m37723$$8q93y,44222;7037w374=:2$7q<3d;7523;;7e",
":7*erir055#227*eeier4$;227>4rmee5$5257*eeie052*2",
"he30r7*7627dh07ree*8858mkq3er8*7637dhe5eer*7837m",
"-g;#5822bw3*<g;*:85;yy3*<g2+5822bt3*<V:*>6220y3*",
"e9*n7r52m=767e384e$>y=478e3r3r2>b&767r3z3w*2y&78",
"rr23;w3$223eer;7><42222rr837*e7552;7rr:z>e35222e",
"0ei35o8+26ry0rw36*3#;zewerr37+7;580qwey57+e+5zey",
"09rri>5$;r7*71wry35#;z55r0yri26#*672r9seg25+*87;",
"833;Ve0iwg9283,>g98yaf32r232meeywd928=23beeyad32",
"262eed&11q32;3289g&qq9e3;6;r9d,110e25328ed&11e42",
"e22;:39>25$3r35$337*32+5025;:3=*25#2r36;3<<>,5@5",
"Vy3rr<w35X*edy3rr3d,5X;0gw3r0<g35X*edr8Mcxmxx$5e",
"3,y587,3#$8093y343:7$$3093y36733$27e93N5x626l%6r",
"54=e8y0r55+227>9ry9r52$5>4*70i0062#358*e4iqr5522"
};
