/* XPM */
static char *france[] = {
/* columns rows colors chars-per-pixel */
"48 32 74 1 ",
"  c #DE2234",
". c #DE263A",
"X c #DF283C",
"o c #E42536",
"O c #E82736",
"+ c #EC2937",
"@ c #E32739",
"# c #E5293A",
"$ c #EB2B3A",
"% c #E52F43",
"& c #EC2F40",
"* c #EC3243",
"= c #EC3649",
"- c #DC4858",
"; c #E34C5A",
": c #E6505F",
"> c #ED515D",
", c #E55362",
"< c #EF5662",
"1 c #EF5965",
"2 c #EE5D6B",
"3 c #F05762",
"4 c #EE6170",
"5 c #E36E7A",
"6 c #EA727D",
"7 c #F2747D",
"8 c #022485",
"9 c #01248C",
"0 c #05298F",
"q c #012595",
"w c #052996",
"e c #092D96",
"r c #022798",
"t c #032999",
"y c #0A2F98",
"u c #0B3097",
"i c #304C9C",
"p c #39539E",
"a c #304DA7",
"s c #314EA9",
"d c #3852A4",
"f c #3452AA",
"g c #3955AB",
"h c #3D58AC",
"j c #405CAB",
"k c #5C71B5",
"l c #5C73BB",
"z c #6079BF",
"x c #F27D89",
"c c #F38F96",
"v c #E49CA4",
"b c #EC9EA4",
"n c #EEA4AC",
"m c #F4A6AC",
"M c #F6A8AD",
"N c #F5ABB3",
"B c #EBB3B9",
"V c #8093C7",
"C c #8996C3",
"Z c #8D9BC6",
"A c #8D9BC8",
"S c #919FCC",
"D c #95A3CF",
"F c #96A4D1",
"G c #98A6D3",
"H c #9DACD4",
"J c #AEB9D8",
"K c #B6BFDB",
"L c #F1C0C3",
"P c #EDEDED",
"I c #F5F5F5",
"U c #F7F7F8",
"Y c #F8F7F8",
"T c #FCFCFC",
/* pixels */
"TTTTTTTTTTTTTTTTTTTTYTTTTTYTTTTTTTTTTTTTTTTTTTTT",
"TVkkzllllkklllllKYUYPPIIIPIUUPPL75x776x656x77xcT",
"Tstqq8trqrwqewqqFITUUIUIIIPYIYUm*+#$@.o+oX$Oo+;T",
"Tfet9q0qwrrqr9eqFITYIUTUTYTTPTTn$+$$ oX#$$+o*$-T",
"Tsuqqq9qteqqrrqtGUTUUTTYTYTYITYn#*$*$O#O$$#o#O>T",
"Tiqqqqwwq9qqwweqAYTTTTTTTYTTTTTm+X#$$* O$$+$++>T",
"Tgqtwrqwqqw9qqqqGUYYUTUYTPYTITPm++$*$OO+$$$$#&>T",
"Tfqw9qqwqqwqqq99GPTYTYYTTTTYITUm#+#%O#O++++*#$>T",
"TsqwqqqqtqqqwqqqAYTYTTTYTYYTTTTNXOoo+#+#++$$#$>T",
"Ti9qwqqqqwwtqqqwGTTTTUTTTTTTTTUN++$$oO++O+++O+3T",
"Tfq9wqqrqq9q9qqqZTTTUUTYTYTTTTPmO$$*#Oo*o++*OO1T",
"Tsq9qqqrwqqqqtqwDYUTTYTTUIYUTTTm$O$$OOO$+++$++>T",
"TfqrqqrqqqqqqqqqGPYYTUUYTTYTTTYv# O##$$$o+#$*$,T",
"TfrrtqqeqqqqwqrqGITYTUUUTTUTUTTm+ ##o$$$o$$$$+;T",
"Thrrwqqqqqqqq9qwHYTTITTTTUTTTTTm$O#Oo#+*+$+Oo -T",
"Tfqrq9wqqqeqqqqqGYTTTTYTIIUUTTPN$+O#+o++O#+O+$;T",
"Tsqqqqqqr9qqqwqqGTYTTYYTTYTTTTTN$o&++o+o$&+ #*>T",
"Taq8qqqqqqqqrwqqFPTYTYUYTTTYIYTN&O$##+*+#$+++#>T",
"Tsqqqqw9qqeqqq9qGTYTTYYTTYTTTYYM+#O++$*$$+#+#O1T",
"TstwqtqqqwqwqwqwAYUTTYYYYTUYTUYn+@#oO++=+O*+$+,T",
"Tgq9q99qqqqqqqqqCYYUYUUTTTYUTTTN$=*O$*+$O#$Oo*-T",
"ThqqqqqetqqerrqqFTUTTUYYYUTYITPm$+Oo+# O++OoO+;T",
"Tsrrqqqqq9q9qqq0DYTUYYYITTTYTYTN#O++&+++++oOo$>T",
"Tsqqqqqqqww9qqqtHTYTTTTYTYTYTTYboOo+$+++$*O+*$>T",
"Thqwwetqqqqqq9twSTTTITTYTTTTYTTno+$$$*oOO@$++o;T",
"Tstqq9r9qwtqwqqqGTYTTTYTYUYTTTYMOO#$#*++Oo*Ooo>T",
"Tgqqqrweqqqqqqq9FTTTTPYPTTTTTPTm$X**$$oO$+#@O+2T",
"Tfq9qw8qqq9qqtqqGYPTYTTTTUYYTYUm o +$*$O#&$+#$<T",
"Tgqwrtqqq9qtqqqqGTUTUYUYUTYTTTYn+O+o#+oO++&+$$,T",
"Tfqwrqtqqqqqq9qrAYYTYIPUYTYYYTYM$#$%O+ O+*=++ >T",
"TzgddgdjghhdfgjhJTPTIYYYYIYYYTTB23314,134,11436T",
"TTTTTTTTTTTTTTTTTTTTTTTTTTTTTTTTTTTTTTTTTTTTTTTT"
};
