/* XPM */
static char *red_card[] = {
/* columns rows colors chars-per-pixel */
"36 48 139 2 ",
"   c #251B17",
".  c #3C1714",
"X  c #331914",
"o  c #2B2725",
"O  c #2B2827",
"+  c #2B2828",
"@  c #333535",
"#  c #54150D",
"$  c #421913",
"%  c #4D1C13",
"&  c #5C1610",
"*  c #521B10",
"=  c #6C140B",
"-  c #62190C",
";  c #6A1D0F",
":  c #7B170B",
">  c #502118",
",  c #6F2A1D",
"<  c #562B24",
"1  c #582C26",
"2  c #5C3C2E",
"3  c #473C30",
"4  c #4D3F32",
"5  c #5C3831",
"6  c #653424",
"7  c #4D4235",
"8  c #45433F",
"9  c #574737",
"0  c #66513F",
"q  c #454646",
"w  c #464846",
"e  c #464748",
"r  c #4A4B4B",
"t  c #5E5E5D",
"y  c #645240",
"u  c #6D5441",
"i  c #6E5947",
"p  c #65584D",
"a  c #6B5E4F",
"s  c #64564C",
"d  c #755F4B",
"f  c #675C52",
"g  c #6B5D53",
"h  c #6E6055",
"j  c #74695F",
"k  c #616463",
"l  c #746C64",
"z  c #7C746C",
"x  c #7E7B76",
"c  c #747574",
"v  c #911202",
"b  c #9A1302",
"n  c #A81702",
"m  c #A41B05",
"M  c #AA1D04",
"N  c #A21E08",
"B  c #B31F03",
"V  c #BF1F01",
"C  c #A1200A",
"Z  c #B12003",
"A  c #B92911",
"S  c #C11E00",
"D  c #C22106",
"F  c #C52509",
"G  c #C92B0F",
"H  c #D43A22",
"J  c #CC452F",
"K  c #DB442D",
"L  c #CB4431",
"P  c #DB4630",
"I  c #D34F3D",
"U  c #D4503C",
"Y  c #E4533F",
"T  c #80604B",
"R  c #856C52",
"E  c #8F7055",
"W  c #8D7259",
"Q  c #957159",
"!  c #967B5F",
"~  c #9E7B5C",
"^  c #A17C5C",
"/  c #957A62",
"(  c #867E7A",
")  c #A47F60",
"_  c #E45340",
"`  c #7F807F",
"'  c #82817F",
"]  c #A48061",
"[  c #A8896E",
"{  c #B6906F",
"}  c #BE936D",
"|  c #A48E7B",
" . c #AC927A",
".. c #B39171",
"X. c #BA9A7E",
"o. c #C5946D",
"O. c #CD9E75",
"+. c #D5A67D",
"@. c #808080",
"#. c #939393",
"$. c #9C9D9C",
"%. c #BC9E84",
"&. c #9EA09F",
"*. c #A09FA0",
"=. c #9EA0A0",
"-. c #A0A0A1",
";. c #ADAEAD",
":. c #AFB0AF",
">. c #AFAFB0",
",. c #B0AFB0",
"<. c #B4B3B3",
"1. c #B6B8B7",
"2. c #C19F85",
"3. c #D1A783",
"4. c #D7A981",
"5. c #D9AB83",
"6. c #DBAF89",
"7. c #DCB187",
"8. c #DDB18A",
"9. c #C9AB94",
"0. c #DCB592",
"q. c #E0B48F",
"w. c #E1B690",
"e. c #E1B996",
"r. c #E5BE9D",
"t. c #E6C09F",
"y. c #E7C0A1",
"u. c #E8C1A1",
"i. c #E9C6A9",
"p. c #EDCDB3",
"a. c #C1C2C1",
"s. c #C8C9C7",
"d. c #C9CAC9",
"f. c #EEEEED",
"g. c #EFF0EF",
"h. c #EFF1F2",
"j. c #F7F8F7",
"k. c #F8F9F6",
"l. c #FFFFFF",
/* pixels */
"l.l.l.l.l.l.l.l.l.l.l.l.l.l.l.l.l.l.l.l.l.l.l.l.l.l.l.l.l.l.l.l.l.l.l.l.",
"l.l.l.l.l.l.l.l.l.l.l.l.l.l.l.l.l.l.l.l.l.l.l.l.l.l.l.l.l.l.l.l.l.l.l.l.",
"l.l.l.l.l.l.l.l.l.l.l.l.l.l.l.l.l.l.l.l.l.l.l.l.l.l.l.l.l.l.l.l.l.l.l.l.",
"l.l.l.l.l.l.l.l.l.l.l.l.l.l.l.l.l.l.l.l.l.l.l.l.l.l.l.l.l.l.l.l.l.l.l.l.",
"l.l.l.l.l.l.l.l.l.l.l.l.l.l.l.l.l.l.l.l.l.l.l.l.l.l.l.l.l.l.l.l.l.l.l.l.",
"l.l.l.l.l.l.l.l.l.l.l.l.l.l.l.l.l.l.l.l.l.l.l.l.l.l.l.l.l.l.l.l.l.l.l.l.",
"l.l.l.l.l.l.l.l.l.l.l.l.l.l.l.l.l.l.l.l.l.l.l.l.l.l.l.l.l.l.l.l.l.l.l.l.",
"l.l.l.l.l.l.l.l.k.f.f.f.f.f.f.f.f.f.f.f.j.k.l.l.l.l.l.l.l.l.l.l.l.l.l.l.",
"l.l.l.l.l.l.l.k.h.q o o o o + + o + O O ;.j.l.l.l.l.l.l.l.l.l.l.l.l.l.l.",
"l.l.l.l.l.l.l.j.q C B B B B L A L I U U 5 <.l.l.l.l.l.l.l.l.l.l.l.l.l.l.",
"l.l.l.l.l.l.l.j.@ M V S S S S S D K _ Y < ;.l.l.l.l.l.l.l.l.l.l.l.l.l.l.",
"l.l.l.l.l.l.l.j.@ M S S S S S S S D P Y 1 ,.l.l.l.l.l.l.l.l.l.l.l.l.l.l.",
"l.l.l.l.l.l.l.j.@ M S S S S S S S V K Y < <.l.l.l.l.l.l.l.l.l.l.l.l.l.l.",
"l.l.l.l.l.l.l.j.@ M S D S S S S S S F P < ;.l.l.l.l.l.l.l.l.l.l.l.l.l.l.",
"l.l.l.l.l.l.l.j.@ M S S S S S S S D S F % <.l.l.l.l.l.l.l.l.l.l.l.l.l.l.",
"l.l.l.l.l.l.l.j.@ M S S S S S S S S S S % ;.l.l.l.l.l.l.l.l.l.l.l.l.l.l.",
"l.l.l.l.l.l.l.j.@ M S S S S S S S S S H < ;.l.l.l.l.l.l.l.l.l.l.l.l.l.l.",
"l.l.l.l.l.l.l.j.@ M S S S S V V S S V K < >.l.k.l.l.l.l.l.l.l.l.l.l.l.l.",
"l.l.l.l.l.l.l.j.@ M S S S S V S S S V G % >.l.l.l.l.l.l.l.l.l.l.l.l.l.l.",
"l.l.l.l.l.l.l.j.@ M S S V S V n - * N S % r k a.l.l.l.l.l.l.l.l.l.l.l.l.",
"l.l.l.l.l.l.l.j.@ M S S V S n & T / 6 N % 0 / z a.k.l.l.l.l.l.l.l.l.l.l.",
"l.l.l.l.l.l.l.j.@ M S S V S b X ) 5.7 : $ E 6. .z a.l.l.l.l.l.l.l.l.l.l.",
"l.l.l.l.l.l.l.j.@ M D S V n v X ~ 5.7 = . 4 ..r.p &.l.l.l.l.l.l.l.l.l.l.",
"l.l.l.l.l.l.l.j.@ M S S n v v X ~ 5.7 = . 4 i X. .x a.l.l.l.l.l.l.l.l.l.",
"l.l.l.l.l.l.l.k.#., ; ; & * #   ~ 5.7 $ 2 ^ 7 ! e.f $.l.l.l.l.l.l.l.l.l.",
"l.l.l.l.l.l.l.l.j.#.x @.` ` ( @ ~ 5.7 3 Q o.9 / r.| ( d.l.l.l.l.l.l.l.l.",
"l.l.l.l.l.l.l.l.k.l.l.l.k.l.j.q ~ 5.R u u d d ..e.u.h #.k.l.l.l.l.l.l.l.",
"l.l.l.l.l.l.l.l.l.l.l.l.l.k.;.f { 5.+.R 0 0 { 7.8.t.h #.l.l.l.l.l.l.l.l.",
"l.l.l.l.l.l.l.l.l.l.l.l.l.k.e ] 5.6.8.5.3.+.5.8.8.r.h #.l.l.l.l.l.l.l.l.",
"l.l.l.l.l.l.l.l.l.l.l.l.l.l.w ) 5.8.8.6.8.8.6.6.8.r.h #.l.l.l.l.l.l.l.l.",
"l.l.l.l.l.l.l.l.l.l.l.l.l.l.w ^ +.6.8.6.8.8.8.8.w.%.z <.l.l.l.l.l.l.l.l.",
"l.l.l.l.l.l.l.l.l.l.l.l.l.k.w ) O.5.6.q.8.8.8.w.2.l 1.k.l.l.l.l.l.l.l.l.",
"l.l.l.l.l.l.l.l.l.l.l.l.l.l.c W } 5.8.8.8.8.8.u.p =.l.l.l.l.l.l.l.l.l.l.",
"l.l.l.l.l.l.l.l.l.l.l.l.l.k.k.e ^ 5.8.8.8.8.t.9.l <.l.l.l.l.l.l.l.l.l.l.",
"l.l.l.l.l.l.l.l.l.l.l.l.l.l.k.r ~ +.7.8.8.8.r.s $.l.l.l.l.l.l.l.l.l.l.l.",
"l.l.l.l.l.l.l.l.l.l.l.l.l.l.l.r ~ O.5.8.8.q.y.p -.k.l.l.l.l.l.l.l.l.l.l.",
"l.l.l.l.l.l.l.l.l.l.l.l.l.l.k.r ~ O.5.8.7.t.i.p -.l.l.l.l.l.l.l.l.l.l.l.",
"l.l.l.l.l.l.l.l.l.l.l.l.l.l.l.r ~ 5.8.8.q.t.i.p $.l.l.l.l.l.l.l.l.l.l.l.",
"l.l.l.l.l.l.l.l.l.l.l.l.l.l.k.t [ +.0.e.i.p.p.j ;.k.l.l.l.l.l.l.l.l.l.l.",
"l.l.l.l.l.l.l.l.l.l.l.l.l.l.l.k.l.k.l.k.k.l.k.j.k.l.l.l.l.l.l.l.l.l.l.l.",
"l.l.l.l.l.l.l.l.l.l.l.l.l.l.l.l.l.l.l.l.l.l.l.l.l.l.l.l.l.l.l.l.l.l.l.l.",
"l.l.l.l.l.l.l.l.l.l.l.l.l.l.l.l.l.l.l.l.l.l.l.l.l.l.l.l.l.l.l.l.l.l.l.l.",
"l.l.l.l.l.l.l.l.l.l.l.l.l.l.l.l.l.l.l.l.l.l.l.l.l.l.l.l.l.l.l.l.l.l.l.l.",
"l.l.l.l.l.l.l.l.l.l.l.l.l.l.l.l.l.l.l.l.l.l.l.l.l.l.l.l.l.l.l.l.l.l.l.l.",
"l.l.l.l.l.l.l.l.l.l.l.l.l.l.l.l.l.l.l.l.l.l.l.l.l.l.l.l.l.l.l.l.l.l.l.l.",
"l.l.l.l.l.l.l.l.l.l.l.l.l.l.l.l.l.l.l.l.l.l.l.l.l.l.l.l.l.l.l.l.l.l.l.l.",
"l.l.l.l.l.l.l.l.l.l.l.l.l.l.l.l.l.l.l.l.l.l.l.l.l.l.l.l.l.l.l.l.l.l.l.l.",
"l.l.l.l.l.l.l.l.l.l.l.l.l.l.l.l.l.l.l.l.l.l.l.l.l.l.l.l.l.l.l.l.l.l.l.l."
};
