/* XPM */
static char *ronaldo[] = {
/* columns rows colors chars-per-pixel */
"42 48 209 2 ",
"   c #030303",
".  c #090504",
"X  c #0A0B05",
"o  c #060B0C",
"O  c #0C0C0A",
"+  c #090709",
"@  c #150E0A",
"#  c #150B08",
"$  c #0F100F",
"%  c #141407",
"&  c #141409",
"*  c #1F1E0F",
"=  c #0F0F12",
"-  c #131211",
";  c #1D1813",
":  c #091313",
">  c #211E0E",
",  c #221D13",
"<  c #281F1A",
"1  c #212012",
"2  c #292116",
"3  c #2D241A",
"4  c #332A13",
"5  c #3B2C11",
"6  c #33281B",
"7  c #1D3232",
"8  c #1B2C2D",
"9  c #252423",
"0  c #2B2B26",
"q  c #2C2D2B",
"w  c #272823",
"e  c #352B22",
"r  c #36332E",
"t  c #333433",
"y  c #3B3B3A",
"u  c #383836",
"i  c #203635",
"p  c #423328",
"a  c #483926",
"s  c #503E2C",
"d  c #493D30",
"f  c #42413E",
"g  c #4C463D",
"h  c #574635",
"j  c #514328",
"k  c #614D36",
"l  c #655134",
"z  c #665139",
"x  c #6A533A",
"c  c #6B5532",
"v  c #71573E",
"b  c #3E6A66",
"n  c #325252",
"m  c #434342",
"M  c #4C4C4B",
"N  c #494845",
"B  c #48504E",
"V  c #545453",
"C  c #5B5B5A",
"Z  c #575758",
"A  c #554C43",
"S  c #735C44",
"D  c #695C4D",
"F  c #7A654E",
"G  c #63625D",
"H  c #646463",
"J  c #6C6A63",
"K  c #6B6C6B",
"L  c #607067",
"P  c #71716D",
"I  c #737372",
"U  c #7C7C7C",
"Y  c #777A75",
"T  c #70726B",
"R  c #866B49",
"E  c #8D714C",
"W  c #8B7255",
"Q  c #937656",
"!  c #947854",
"~  c #997A55",
"^  c #957A59",
"/  c #6F806F",
"(  c #7D807B",
")  c #CCB318",
"_  c #A4835B",
"`  c #9D8265",
"'  c #8C8576",
"]  c #AD906B",
"[  c #B79469",
"{  c #C89D69",
"}  c #C49F71",
"|  c #CFA46E",
" . c #DBAA6E",
".. c #D1A76F",
"X. c #CCA674",
"o. c #DAAD74",
"O. c #D4AB7A",
"+. c #DBB175",
"@. c #EEBB76",
"#. c #E3B57B",
"$. c #EDB779",
"%. c #EDBB7B",
"&. c #EEB777",
"*. c #F1BA76",
"=. c #F1BB7B",
"-. c #DFCA54",
";. c #E1D279",
":. c #538886",
">. c #519392",
",. c #669C98",
"<. c #6EBFBB",
"1. c #6EA9A2",
"2. c #79DFDA",
"3. c #7CFBF5",
"4. c #838483",
"5. c #878986",
"6. c #8B8C8B",
"7. c #8C8982",
"8. c #87908E",
"9. c #9A978C",
"0. c #949494",
"q. c #9C9D9C",
"w. c #979897",
"e. c #A19F9A",
"r. c #AC9A84",
"t. c #9EA09E",
"y. c #B3A592",
"u. c #9FA1A0",
"i. c #A2A3A2",
"p. c #AAACAB",
"a. c #B1B0AF",
"s. c #ADB2B1",
"d. c #B1B2B1",
"f. c #BBBCBA",
"g. c #B8B9B6",
"h. c #CBAE88",
"j. c #EBBB82",
"k. c #EEBF88",
"l. c #E0B680",
"z. c #F1BE81",
"x. c #C1B4A0",
"c. c #BFC0BF",
"v. c #BBDBB5",
"b. c #DBC19A",
"n. c #EBC085",
"m. c #F1C085",
"M. c #ECC995",
"N. c #DED6B1",
"B. c #CDD0B4",
"V. c #E5CDAB",
"C. c #EBD3A9",
"Z. c #EBD0A7",
"A. c #F0D3AD",
"S. c #EED5B4",
"D. c #EEDABA",
"F. c #EDD7B9",
"G. c #F1DDB9",
"H. c #ECE6AB",
"J. c #B2DDC1",
"K. c #8DE5DE",
"L. c #80EFE7",
"P. c #8EF7F1",
"I. c #9BF8F3",
"U. c #87F4EC",
"Y. c #A1F5EE",
"T. c #A3F7F1",
"R. c #B9F2EE",
"E. c #8DD0CD",
"W. c #C4C5C3",
"Q. c #C7C9C7",
"!. c #CCCCCC",
"~. c #CDCEC4",
"^. c #D5D5D4",
"/. c #DBDCDB",
"(. c #D5DAD8",
"). c #D8D3C4",
"_. c #E8DAC2",
"`. c #D7E0DE",
"'. c #EFE7C7",
"]. c #F2E2C4",
"[. c #F3E6CB",
"{. c #F5E9CD",
"}. c #F5EFDC",
"|. c #F3EAD4",
" X c #F5F3D4",
".X c #DEE5E4",
"XX c #C8F4F2",
"oX c #D9F7F4",
"OX c #D4F2ED",
"+X c #E3E4E3",
"@X c #E6E8E5",
"#X c #ECEDEC",
"$X c #E7ECE9",
"%X c #F1EEEA",
"&X c #E6F0EE",
"*X c #EDF0ED",
"=X c #F6F5E6",
"-X c #F1F3EE",
";X c #F9F8E7",
":X c #EAEFF1",
">X c #E5EFF1",
",X c #E5F3F2",
"<X c #ECF1F0",
"1X c #E9FBF8",
"2X c #F3F3F2",
"3X c #F5FAF5",
"4X c #F9FBF5",
"5X c #F5FCFA",
"6X c #FDFEFD",
/* pixels */
"6X6X6X6X6X6X6X6X6X6X6X6X6X6X6X6X6X6X6X6X6X6X6X6X6X6X6X6X6X6X6X6X6X6X6X6X6X6X6X6X6X6X",
"6X6X6X6X6X6X6X6X6X6X6X6X6X6X6X6X6X6X6X6X6X6X6X6X6X6X6X6X6X6X6X6X6X6X6X6X6X6X6X6X6X6X",
"6X6X6X6X6X6X6X6X6X6X6X6X6X6X6X6X6X6X6X6X6X6X6X6X6X6X6X6X6X6X6X6X6X6X6X6X6X6X6X6X6X6X",
"6X6X6X6X6X6X6X6X6X6X6X6X6X6X6X6X6X6X6X6X6X6X6X6X6X2Xi.i.t.t.t./.6X6X6X6X6X6X6X6X6X6X",
"6X6X6X6X6X6X6X6X6X6X6X6X6X6X6X6X6X6X6X6X6X6X6X6X6X@XX         i.6X6X6X6X6X6X6X6X6X6X",
"6X6X6X6X6X6X6X6X6X6X6X6X6X6X6X6X2XH H C G H H J J H O % X X X M Y +X6X6X6X6X6X6X6X6X",
"6X6X6X6X6X6X6X6X6X6X6X6X6X4X4X3X$XO                 % % % % % X   ^.6X6X6X6X6X6X6X6X",
"6X6X6X6X6X6X6X6X6X6X6X6X4X6X3XV q & O % O % O O X % % % % % % .   ^.6X6X6X6X6X6X6X6X",
"6X6X6X6X6X6X6X6X6X6X6X6X4X2X*X0 X % % % & & & % % % & & % & & X   ^.6X6X6X6X6X6X6X6X",
"6X6X6X6X6X6X6X6X6X6X6X6X6XC   % % % % % & & & % & & & & % % % X   /.6X6X6X6X6X6X6X6X",
"6X6X6X6X6X6X6X6X6X6X6X+Xf.M . % % % % & & & & & & & & & % % % X   /.6X6X6X6X6X6X6X6X",
"6X6X6X6X6X6X6X6X6X6X6X6.  @ % % * % % % * % & & & % % % % % % X   /.6X6X6X6X6X6X6X6X",
"6X6X6X6X6X6X6X6X6X6X6X6.  & > > > > > > a x c x x z z z l l h ,   /.6X6X6X6X6X6X6X6X",
"6X6X6X6X6X6X6X6X6X6X6X6.  1 4 4 4 4 4 4 R %.=.=.=.z.$.$.=.=.;.a   +X6X6X6X6X6X6X6X6X",
"6X6X6X6X6X6X6X6X6X6X6X6.  , 4 ~ ~ 4 j _ { @.C.[.].G.$.M.].M.=.a   +X6X6X6X6X6X6X6X6X",
"6X6X6X6X6X6X6X6X6X6X6X6.  , 4 o.+.5 l ;.$.j.[.4X6X=X$.Z.6XG.$.a   +X6X6X6X6X6X6X6X6X",
"6X6X6X6X6X6X6X6X6X6X6X6.  , 4  .o.5 c &.C.}.G r t g %.] y 9.|.N   +X6X6X6X6X6X6X6X6X",
"6X6X6X6X6X6X6X6X6X6X6X6.  > 4 o.o.5 c @.F.6XV     * j._   4.4XN   @X6X6X6X6X6X6X6X6X",
"6X6X6X6X6X6X6X6X6X6X6X6.  * 4 o.*.j.=.@.D.5XM     , z._   5.4XN   +X6X6X6X6X6X6X6X6X",
"6X6X6X6X6X6X6X6X6X6X6Xp.N 0 , ..%.@.@.@.V.}.T y u g z.] t 9.}.f   #X6X6X6X6X6X6X6X6X",
"6X6X6X6X6X6X6X6X6X6X4X6X4XZ + X.=.=.&.*.&.j.{.5X5X=X$.Z.2XF.j.r   @X6X6X6X6X6X6X6X6X",
"6X6X6X6X6X6X6X6X6X/.^ 4.4.q X S E %.@.&.[ R ' 0.F.G.$.M.].h.Q <   #X6X6X6X6X6X6X6X6X",
"6X6X6X6X6X6X6X6X2Xf.o o     .   ; j.$.@.F     + h.*.=.*.&.S       $X6X6X6X6X6X6X6X6X",
"6X6X6X6X6X6X6X:XM K s.s.a.s.p.1.,.h R &.{ Q Q Q $.;.=.[ k L >.8.0.I 4.6X6X6X6X6X6X6X",
"6X6X6X6X6X6X6X#X  N 4X6X6X6X5XP.2.+ d j.%.%.%.%.&.$.%.^ + :.3.oX6XO q 6X6X6X6X6X6X6X",
"6X6X6X6X6X4Xy w O.b.4X6X6X3X4X1X,X(.e.2 2 2 2 3 3 6 6 G W..XoX1X4X] ` N 5.3X6X6X6X6X",
"6X6X6X6X#X/.r 6 j.M.=X4X5X@X+X3X6X5Xd.- & @ $ $ = = = Z #X3X6X4X;Xk.{ # G 5X6X6X6X6X",
"6X6X6X6XV   X.$.&.&.$.G.3XM O +X6X6X2X@XV.l._.@X%X-X%Xi.& 6.5XV.j.z.&.o.Q - q.6X6X6X",
"6X6X6X4XM   { =.=.o.~ r.s.u X `.=XH.'.2XD.M.|.2X6X6X6Xi.  I ~.y.} &.*.*.~   0.6X6X6X",
"6X6X6X6XM . ..=.&._ O .     X +X X) -.4X2X%X3X5X4X6X6Xi.      . . #.*.&.^   0.6X6X6X",
"6X6X6X6XM   | =.&.| F p     X .X=X;.H.4X-X-X3X6X6X6X6Xu.    . j k #.*.&.~   0.6X6X6X",
"6X6X6X6XM . ..*.=.*.z.S     X @X4X4X4X6X6X6X6X6X6X6X6Xt.      [ z.=.*.&.!   0.6X6X6X",
"6X6X6X6XN   X.=.&.=.&.S     X +X5X6X6X6X6X6X6X6X6X4X5Xu.      [ @.*.%.%.^   0.6X6X6X",
"6X6X6X4XN . h.k.k.z.k.S +   o .X5X6X6X6X6X6X6X6X6X6X5Xq.    X [ ;.$.=.=.W   0.6X6X6X",
"6X6X6X6X-X$Xw @ # @ @ 4.+Xy : K.Y.,X%X-X#X2X-X:X:XoXI.,.  Y ~.A 6 e e e J f.+X6X6X6X",
"6X6X6X6X6X4Xy w 9 9 9 6.(.B 8 K.Y.>X#X#X#X#X#X#X%XOXP.,.: 0.*Xy + + X + K 4X6X6X6X6X",
"6X6X6X6X6X6X6X6X6X5X3XI X <.U.oX>X%X#X#X#X#X%X#X#X#X*XR.L.b : W.2X2X2X2X3X6X6X6X6X6X",
"6X6X6X6X6X6X6X6X6X(.p.Y n E.I.,X$X#X#X#XQ.a..X*X#X#X$XXXP./ 7 s.!.6X6X6X6X6X6X6X6X6X",
"6X6X6X6X6X6X6X6X6Xu.  :.3.XX#X:X#X:X:X:XH   g.*X#X&X,X&XoXI.3.7 - 2X6X6X6X6X6X6X6X6X",
"6X6X6X6X6X6X6X@XY B   / v.N.A.S.S.S.x.U U Y U 7.F.F.S.F.F.~.J.w O w.d.6X6X6X6X6X6X6X",
"6X6X6X6X6X6X6X^.      W %.&.%.$.&.&.E   0.4Xu # l.*.&.&.&.=.j.3     y 6X6X6X6X6X6X6X",
"6X6X6X6XK y f Z g.g.g.).{.[.{.{.B.s J p./.6Xd.e.h F [.].].].].e.0.0.6.K K K Q.6X6X6X",
"6X6X6X2Xy     q 4X4X6X6X5X6X6X6XW.  K 6X6X4X4X#X- y 5X6X4X4X4X6X6X6Xc.      i.4X6X6X",
"6X4XI O c.-X-X-X6X4X6X6X6X6X4X6XW.  K 6X6X6X6X#X$ y 5X6X6X6X6X6X6X6X%XW.W.Q.K y +X6X",
"6X6XK   i.^.^.^.^.(././././..X+Xd.  K 6X6X6X6X#XO y <X2X2X3X2X4X4X6X6X6X6X6XZ   +X6X",
"6X6XK                               P 6X6X6X6X#XX   +         +         +       /.6X",
"6X6Xu.H H C C C C C C C Z Z V M M M w.6X6X6X6X:Xm f f f f y f y d u t t q t t t +X6X",
"6X6X6X6X6X6X6X6X6X6X6X6X6X6X6X6X6X6X6X6X6X6X6X6X6X6X6X6X6X6X5X2X5X6X6X6X6X6X6X6X6X6X"
};
