/* XPM */
static char *schweiz[] = {
/* columns rows colors chars-per-pixel */
"48 45 30 1 ",
"  c red",
". c #FF0303",
"X c #FF0A0A",
"o c #FF0D0D",
"O c #FF1313",
"+ c #FF1414",
"@ c #FF1717",
"# c #FF1B1B",
"$ c #FF2B2B",
"% c #FF3434",
"& c #FF3737",
"* c #FF3C3C",
"= c #FF3D3D",
"- c #FF5B5B",
"; c #FF6B6B",
": c #FF6D6D",
"> c #FF7070",
", c #FF7A7A",
"< c #FF7D7D",
"1 c #FF9191",
"2 c #FF9999",
"3 c #FFB1B1",
"4 c #FFBBBB",
"5 c #FFD6D6",
"6 c #FFDDDD",
"7 c #FFE9E9",
"8 c #FFEAEA",
"9 c #FFEFEF",
"0 c #FFF6F6",
"q c white",
/* pixels */
"qqqqqqqqqqqqqqqqqqqqqqqqqqqqqqqqqqqqqqqqqqqqqqqq",
"qqqqqqqqqqqqqqqqqqqqqqqqqqqqqqqqqqqqqqqqqqqqqqqq",
"qq;=*=**=**=***=*=**=**=***=*=**=**=***=*=**=*3q",
"qq=                                           2q",
"qq=                                           2q",
"qq=                                           2q",
"qq=                                           2q",
"qq=                                           2q",
"qq=                                           2q",
"qq=                 @#######o                 2q",
"qq=                 5qqqqqqq,                 2q",
"qq=                 5qqqqqqq,                 2q",
"qq=                 5qqqqqqq,                 2q",
"qq=                 5qqqqqqq,                 2q",
"qq=                 5qqqqqqq,                 2q",
"qq=                 5qqqqqqq,                 2q",
"qq=                 5qqqqqqq,                 2q",
"qq=                 5qqqqqqq,                 2q",
"qq=       O$$$$$$$$$6qqqqqqq1$$$$$$$$$        2q",
"qq=       >qqqqqqqqqqqqqqqqqqqqqqqqqqq@       2q",
"qq=       >qqqqqqqqqqqqqqqqqqqqqqqqqqq@       2q",
"qq=       >qqqqqqqqqqqqqqqqqqqqqqqqqqqO       2q",
"qq=       >qqqqqqqqqqqqqqqqqqqqqqqqqqqO       2q",
"qq=       >qqqqqqqqqqqqqqqqqqqqqqqqqqq@       2q",
"qq=       >qqqqqqqqqqqqqqqqqqqqqqqqqqqO       2q",
"qq=       >qqqqqqqqqqqqqqqqqqqqqqqqqqq@       2q",
"qq=       &<<<<<<<<<8qqqqqqq4<<<<<<<<<X       2q",
"qq=                 5qqqqqqq,                 2q",
"qq=                 5qqqqqqq,                 2q",
"qq=                 5qqqqqqq,                 2q",
"qq=                 5qqqqqqq,                 2q",
"qq=                 5qqqqqqq,                 2q",
"qq=                 5qqqqqqq,                 2q",
"qq=                 5qqqqqqq,                 2q",
"qq=                 5qqqqqqq,                 2q",
"qq=                 -:::::::&                 2q",
"qq=                                           2q",
"qq=                                           2q",
"qq=                                           2q",
"qq=                                           2q",
"qq=                                           2q",
"qq=                                           2q",
"qq=                                           2q",
"qq988888888888888888888888888888888888888888880q",
"qqqqqqqqqqqqqqqqqqqqqqqqqqqqqqqqqqqqqqqqqqqqqqqq"
};
