/* XPM */
static char *spain[] = {
/* columns rows colors chars-per-pixel */
"48 26 155 2 ",
"   c #050100",
".  c #040200",
"X  c #050200",
"o  c #050300",
"O  c #040301",
"+  c #060200",
"@  c #060300",
"#  c #060400",
"$  c #060500",
"%  c #060402",
"&  c #060404",
"*  c #060504",
"=  c #060604",
"-  c #450400",
";  c #440500",
":  c #450500",
">  c #700800",
",  c #700A00",
"<  c #700A01",
"1  c #503E00",
"2  c #544000",
"3  c #554000",
"4  c #544100",
"5  c #554100",
"6  c #574200",
"7  c #554102",
"8  c #545454",
"9  c #565656",
"0  c #704545",
"q  c #8B0C01",
"w  c #B13900",
"e  c #B13A00",
"r  c #B73E00",
"t  c #B83F04",
"y  c #C90E00",
"u  c #C90F00",
"i  c #CC0E00",
"p  c #CC0F00",
"a  c #CC1000",
"s  c #CC1100",
"d  c #E00B00",
"f  c #E00C00",
"g  c #E00D00",
"h  c #B74101",
"j  c #BB4000",
"k  c #B94504",
"l  c #8B6200",
"z  c #8B6300",
"x  c #8B6400",
"c  c #8C6400",
"v  c #9E7400",
"b  c #BE6400",
"n  c #D64100",
"m  c #D64200",
"M  c #D94701",
"N  c #D34C00",
"B  c #D34C05",
"V  c #D94802",
"C  c #DC4A03",
"Z  c #DD4B04",
"A  c #D07601",
"S  c #D27602",
"D  c #D47800",
"F  c #E07702",
"G  c #E17900",
"H  c #8C1850",
"J  c #CA4C42",
"K  c #D35248",
"L  c #D35348",
"P  c #D3554B",
"I  c #9F8900",
"U  c #AD8200",
"Y  c #AD8300",
"T  c #CC9100",
"R  c #CC9200",
"E  c #CD9200",
"W  c #E08200",
"Q  c #E08300",
"!  c #E98302",
"~  c #EA8602",
"^  c #ED8501",
"/  c #EE8501",
"(  c #DBA000",
")  c #DCA000",
"_  c #DCA100",
"`  c #EAAA00",
"'  c #EBAA00",
"]  c #EBAC00",
"[  c #EDAD00",
"{  c #EDAE00",
"}  c #EEAE00",
"|  c #EDB000",
" . c #EEB000",
".. c #F9BC01",
"X. c #F9BD01",
"o. c #F9BD02",
"O. c #F9BD03",
"+. c #FBBE02",
"@. c #FCBD00",
"#. c #FEBD00",
"$. c #FCBE00",
"%. c #FEBE00",
"&. c #FFBE00",
"*. c #FEBF00",
"=. c #FFBF00",
"-. c #FEBF01",
";. c #FEBE03",
":. c #FEBF03",
">. c #FEBF04",
",. c #EAC700",
"<. c #E8C704",
"1. c #E7C800",
"2. c #EAC801",
"3. c #FEC004",
"4. c #D3AC4B",
"5. c #DDB242",
"6. c #DEB342",
"7. c #DDC742",
"8. c #3721AC",
"9. c #4424AB",
"0. c #032BFB",
"q. c #042DFD",
"w. c #FF01FF",
"e. c #FF02FF",
"r. c #FF05FF",
"t. c #FF54FF",
"y. c #FF56FF",
"u. c #39828F",
"i. c #848382",
"p. c #848484",
"a. c #DA9B95",
"s. c #D99B96",
"d. c #DA9C96",
"f. c #DCAAA7",
"g. c #DCABAC",
"h. c #D9C596",
"j. c #DAC597",
"k. c #DAC797",
"l. c #F8E2AA",
"z. c #AFBBFF",
"x. c #FFABFF",
"c. c #FFACFF",
"v. c #C4C4C2",
"b. c #E0DEDD",
"n. c #E0DEDE",
"m. c #E0DFDE",
"M. c #E0E0DD",
"N. c #E0E0DE",
"B. c #FAF8FA",
"V. c #FAF9FA",
"C. c #FAFAFA",
"Z. c #FDFAFF",
"A. c #FFFBFF",
"S. c #FFFCFF",
"D. c #FFFEFF",
/* pixels */
"d d d d d d d d d d d d d d d d d d d d d d d d d d d d d d d d d d d d d d d d d d d d d d d d ",
"d d d d d d d d d d d d d d d d d d d d d d d d d d d d d d d d d d d d d d d d d d d d d d d d ",
"d d d d d d d d d d d d d d d d d d d d d d f f d d d d d d d d d d d d d d d d d d d d d d d d ",
"d d d d d d d d d d d d d d d d d d d d d d d f d d d d d d d d d d d d d d d d d d d d d d d d ",
"f f f f d d d f f f f f d g g g d d f f f f f f f f f f d d d f f f f f f f f f d d f f f f f f ",
"#.#.#.#.#.#.#.#.[ Q [ W [ Q [ #.#.#.#.#.#.#.#.#.#.#.#.#.#.#.#.#.#.#.#.#.#.#.#.#.#.#.#.#.#.#.#.#.",
"3.3.3. . . . .#.R e b e b e T #.#. . . . .3.3.#.3.#.3.3.3.3.#.3.3.3.3.3.3.3.3.#.#.#.3.#.3.#.3.3.",
"3.#.#._ R R ( U x l > l > l x U Y ( R R _ #.3.3.3.3.3.#.3.#.3.3.3.3.#.3.3.#.3.3.3.3.3.3.3.3.3.3.",
"3.#.3.3.4.4.O.@ ; ; ; ; 9 9 9 8 # O.4.4.#.3.3.#.3.#.3.#.3.3.#.3.3.3.#.3.#.3.#.3.3.3.#.3.3.#.3.3.",
"3.3.3.3.b.m.O.@ y n n i D.c.x.B.# O.M.M.3.3.3.3.3.3.3.3.3.3.3.3.3.3.3.3.3.3.3.3.#.3.3.3.3.3.3.#.",
"3.#.#.3.b.b...@ y ' ' i D.r.w.B.= O.M.M.3.3.3.3.3.3.3.3.3.#.#.3.3.#.#.3.3.3.3.3.3.3.#.3.3.#.3.3.",
"3.3.3.3.a.a.! @ y [ ' a D.t.w.B.= ~ a.a.#.3.3.#.3.#.3.#.3.3.3.3.3.3.3.3.#.3.#.3.3.3.3.3.3.3.3.3.",
"3.#.3./ L L M @ y G G H z.Z.t.B.= M K K / #.3.3.3.3.3.3.3.3.3.3.3.3.3.3.3.3.3.3.#.3.#.3.3.#.3.#.",
"3.3.3.Z b.M.O.@ N a B 0.q.g.l.f.@ O.m.m.Z 3.3.3.3.#.3.#.3.#.3.#.#.3.3.#.#.3.#.3.3.3.3.3.3.3.3.3.",
"3.3.3.3.M.M.~ # 1.a <.9.8.t D r @ ~ m.m.3.3.#.3.3.#.3.3.3.3.3.3.3.3.3.3.3.3.#.3.#.3.3.#.#.3.#.3.",
"3.#.3.#.a.a.V # 1.a ,.a j S 0 A @ V s.a.#.3.3.3.3.3.3.3.#.3.#.3.#.3.3.#.3.3.3.3.3.3.3.3.3.3.3.3.",
"#.3.#./ P P O.# 1.a 2.J 6.k u.h @ O.P P / 3.3.3.3.3.3.3.3.3.3.#.3.3.3.3.3.3.3.3.#.3.#.3.3.3.3.3.",
"3.3.3.C j.k.O.5 I q 7.v.v.5., v 2 O.j.j.C #.3.#.#.3.3.#.#.3.3.3.#.3.#.3.3.#.3.3.3.3.3.3.3.#.#.3.",
"3.3.3. .R R  .#.5 5 i.p.p.i.5 6 #. .R R  .3.3.3.3.#.3.3.#.3.3.3.3.3.3.3.3.#.3.#.#.3.3.#.3.3.3.3.",
"#.3.3._ _ _ _ 3.3.3.2 1 1 5 #.3.#._ _ ( _ 3.#.#.3.3.3.3.3.3.3.#.3.#.3.3.3.3.3.3.3.3.3.3.3.#.3.3.",
"#.3.3.#.3.#.#.3.#.3.3.#.#.#.#.3.#.#.#.#.#.#.#.#.#.3.#.#.#.3.3.#.3.#.#.3.#.3.#.#.#.#.3.#.#.3.3.#.",
"f f g f f f f g f f f f f f f g g g g g g g g g f g f f f f f f f f f g f f f f f f f f f f f f ",
"f f f f d d d d f f f f d d d d g d d d g d d d f f d d f f f f d d f f f f d d f f f f f f f f ",
"d f f f d d d f f f f f d d d d d d d d d d d d f f d f f f f f d d d f f f d d f f f f f f f f ",
"d d d d d d d d d d d d d d d d d d d d d d d d f f d d d d d d d d d d d d d d d d d d d d d d ",
"d d d d d d d d d d d d d d d d d d d d d d d d f f d d d d d d d d d d d d d d d d d d d d d d "
};
