/* XPM */
static char *wall[] = {
/* columns rows colors chars-per-pixel */
"48 48 57 1 ",
"  c #45413E",
". c #474340",
"X c #4B4643",
"o c #4D4946",
"O c #4E4D49",
"+ c #514947",
"@ c #544E4B",
"# c #54514E",
"$ c #59514F",
"% c #575451",
"& c #5C5552",
"* c #5C5956",
"= c #5E5C58",
"- c #615756",
"; c #605957",
": c #645D5A",
"> c #685F5D",
", c #65615E",
"< c #69615F",
"1 c #676461",
"2 c #6C6562",
"3 c #6D6965",
"4 c #6F6C68",
"5 c #706765",
"6 c #706966",
"7 c #746D6A",
"8 c #786F6E",
"9 c #76716E",
"0 c #79726E",
"q c #767571",
"w c #7C7572",
"e c #7E7975",
"r c #807775",
"t c #817A76",
"y c #847D7A",
"u c #887F7D",
"i c #87807D",
"p c #89817E",
"a c #878380",
"s c #8C8482",
"d c #8E8885",
"f c #8F8C88",
"g c #908785",
"h c #918986",
"j c #948C8A",
"k c #988F8D",
"l c #97908E",
"z c #99918F",
"x c #9C9492",
"c c #9F9896",
"v c #A09695",
"b c #A19997",
"n c #A49C9A",
"m c #A6A19E",
"M c #A9A19F",
"N c #ACA4A2",
"B c #B5ABAA",
/* pixels */
"::--*&+&;:;===;*&>&@**%#OOO##++::--*--&&&&X&::*X",
"hgsuyw&wxzkhfaur8r&8lljffaaee:>bMMncxkguw8&pguy:",
"gdsurw&rxxkgaiyqyr-wcjjsaueye:<MNMnxguyyw8&pgay2",
"hdsut0&yxzgssuewwy*7jgdsuyyey:<MNnjspuew8w$ugay6",
"hjpitr$tzjssptyywy*4asuuuw6we:2Mngspurww88#ugay8",
"hppit0$rgdsuppyywt*4ggsspur8r:5xfgsuwwww9q%usauw",
"pitt08$8gsusssutte*3jdsyyuywj:<xkhsuuyewq9*usyw8",
"<<,,,*o-:279736668O#14322<:&$@&55555525<2:o:<<>>",
"+<<<<,,,,,-& $<::,::---$+:::::::&:5o&<1<$:2222>@",
"-hpppppii6r6+9nMnbxlfsw2:xxkhgsu8ew@sckg5wspuee:",
":jphppiy0rr7X8NNnbvzkgw<<cxkgsuy8y8$gxjwr2wsyee*",
";jhhpitwiir0+7NNmnvzkfw,1ckhsuuwwew$sjygus76yyw*",
"-jhtttpsttt0o7NNnnvlgpw,1xjssyyyeww@qsggsuuy5ye=",
"&jtpgppiittr 8vzkssyueq,,jgsyspyyww@qgggsuuywya*",
"&ryjgddsppp0 0jgsuyywwq>;gsasspuuww@wfjhssuyuga*",
" ,<<<<,,,,,$ 7877776552%O,:q6765556.:876555<>>:+",
"=&&&%%o%:--:,:::::@@$%@OOO@O#oo----&&&&&$$X$*;:*",
"fdptq8%ammnclkjpwr-8NNmnbzgyr::lxzjhgppyr9$ujdpt",
"fspt98%gNNnnbvlfrr-rBNnvjssyy;<xxzzjsputww&yxhsu",
"hsit09%sNmnbbllfrr-8mbzljgsrr;<xzzhppitw99#rzhuw",
"hpteq8%sNNnnvjgprw-6ssasuy6wr:2xzgspurw099$thdtt",
"itt0q9#yblgspayrrw-6gssspuy8y:5ljgpirrwq99#yssuw",
"iir0w9#ufgsyyrrqqw$6ggsyyyrrk<<xjgiittwwq8&uuyq8",
"<<<<:=o6ww87444331@$5743552-@@-7776633353>+<>2>2",
" =&*-;,;::-:.%,:=%-<1==Oo&*;;;:;-:-o$,1>>>>::*%#",
"%xmccxkjgs8rosgu8wraaye1*svllggsurw$wchzjjgdrt9*",
"%cMmccxkjsrwoggyyy5yaye,%fzzkjgspyw$yckxkjhg8yw*",
"&mMmbcxkjsw8oswsssu78re,*svzkjfssyw@tcxzhsywurt*",
"@nMmbcxkgs88X2ggsauy58r=&gxkjggsurr@wbvtruustty=",
"$vncxkjpssw8.yggssauywr1%gljgsuuytw@8vygssptyyy*",
"&zckppii8w87.rggssuyysa1*sfsuyrr000@7wdsdsssppy&",
"@rttt007885:.<r8885562<#*8w88887765.$25522<2<<:@",
"---$&&X@*&%*&&&%%=$ &#%# #OO   -&&&$$&$$$$ $;;% ",
"phpitw&wnccxjhaw4e&0kkpcppiei;5vnbnpvppp00%pppi,",
"hhpptw%imcnxhpyqie=0czppiieei$>nMMMpppireq%pppi,",
"hhpptw%yNnfsputqri;9jpppiiiei:>MMMbpiitr00%ipii4",
"hhpptw%iMjssutyt0i%4ppppi0<i0;3Mbppppi7r90$ijpi9",
"hppptw#ehhsuupyy0i*4xpppiii6i:4bpppirrrr90$ihpi0",
"ppyte9#9hsypsyut0i*4pzpiiiiip>3pbppiiirr09*ipie0",
"6765<,o,26ttwwq80q#*4q0e43,;&#;0irr7362662@363<<",
"X-:-==;--&&% @&*:;;=*%   &-&=*=,;;;o#=*-$$::>>:@",
"-hpasppty7w5o8kkxpppiii,,jkjhfppuwe@yhst88sputw*",
":jshaapuwyw6+7xxpbbpiii,;xxzjfpppww%idieuw7uute;",
":jhhppttrytw+7xxxbpppi0,*xzzjjjpsrw@ietdppr2yye;",
"-hhyttiputrwo7xxbpxpii0,*xxzkjppuwr$,pddssut>ee;",
"-hyyhhpiytyqX8kjppppii0,&zlhpppitqw@qfddpaut7uu=",
"&tigpppppii9.7ggpiii000,,ppppire90q+0dgsspuyasa*",
"o,377773322* 88w0040044&=ipir007976X,wew9774351O"
};
